<svg width="23" height="24" viewBox="0 0 23 24" fill="none" xmlns="http://www.w3.org/2000/svg">
<path d="M14.5799 12C14.4731 12 14.3581 11.9835 14.2513 11.9507C14.0471 11.8817 13.8697 11.7501 13.7444 11.5747C13.6191 11.3992 13.5521 11.1888 13.5531 10.9732V9.52746C12.4031 9.42068 11.4996 8.45139 11.4996 7.27675V4.40175C11.4996 3.15318 12.5099 2.14282 13.7585 2.14282H19.0978C20.3463 2.14282 21.3567 3.15318 21.3567 4.40175V7.27675C21.3567 8.52532 20.3463 9.53568 19.0978 9.53568H16.9456L15.4013 11.5893C15.2042 11.8521 14.9003 12 14.5799 12ZM13.7585 3.37497C13.1917 3.37497 12.7317 3.83497 12.7317 4.40175V7.27675C12.7317 7.84354 13.1917 8.30354 13.7585 8.30354H14.7853V10.3571L16.3296 8.30354H19.106C19.6728 8.30354 20.1328 7.84354 20.1328 7.27675V4.40175C20.1328 3.83497 19.6728 3.37497 19.106 3.37497H13.7585ZM7.80313 14.0535C6.87791 14.0514 5.9912 13.6829 5.33697 13.0286C4.68274 12.3744 4.31423 11.4877 4.31206 10.5625C4.31423 9.63724 4.68274 8.75053 5.33697 8.0963C5.9912 7.44207 6.87791 7.07356 7.80313 7.07139C8.72836 7.07356 9.61506 7.44207 10.2693 8.0963C10.9235 8.75053 11.292 9.63724 11.2942 10.5625C11.292 11.4877 10.9235 12.3744 10.2693 13.0286C9.61506 13.6829 8.72836 14.0514 7.80313 14.0535ZM7.80313 8.30354C6.55456 8.30354 5.5442 9.31389 5.5442 10.5625C5.5442 11.811 6.55456 12.8214 7.80313 12.8214C9.0517 12.8214 10.0621 11.811 10.0621 10.5625C10.0621 9.31389 9.0517 8.30354 7.80313 8.30354ZM2.85074 20.1485C3.92681 21.2821 5.59431 21.8571 7.80396 21.8571C10.0136 21.8571 11.6811 21.2821 12.7572 20.1485C14.0074 18.826 13.9671 17.23 13.9647 17.1224V17.1175C13.9647 16.1071 13.1432 15.2857 12.1329 15.2857H3.47503C2.46467 15.2857 1.64324 16.1071 1.64324 17.0846V17.0953C1.63995 17.2514 1.60874 18.8342 2.85074 20.1485ZM2.87538 17.1175C2.87538 16.7889 3.14645 16.5178 3.47503 16.5178H12.1329C12.4615 16.5178 12.7325 16.7889 12.7325 17.1503V17.152C12.715 17.9511 12.4052 18.7162 11.8618 19.3025C11.0322 20.1814 9.65217 20.625 7.80396 20.625C5.95574 20.625 4.60038 20.1896 3.76253 19.3189C3.198 18.728 2.88064 17.9437 2.87538 17.1265V17.1175Z" fill="#32E100"/>
</svg>
