<svg width="20" height="22" viewBox="0 0 20 22" fill="none" xmlns="http://www.w3.org/2000/svg">
<path d="M11.6669 6.56066L6.87967 11.2541C6.42457 11.7042 6.17452 12.3194 6.18452 12.9657C6.19816 13.6196 6.46746 14.2422 6.93468 14.6998C7.40353 15.1637 8.03491 15.43 8.68879 15.4412C9.00889 15.448 9.32711 15.3906 9.62471 15.2725C9.9223 15.1544 10.1933 14.978 10.4217 14.7536L15.2076 10.0601C15.6592 9.61346 16.0152 9.0797 16.2542 8.49125C16.4932 7.9028 16.6101 7.27193 16.5979 6.63692C16.5716 5.32905 16.0339 4.08354 15.1001 3.16745C14.1637 2.24083 12.9065 1.71028 11.5894 1.68589C10.9499 1.67313 10.3142 1.78796 9.7196 2.02366C9.12496 2.25937 8.58327 2.61123 8.12618 3.05868L3.33643 7.7534C2.65967 8.42374 2.12601 9.22446 1.76776 10.1071C1.40951 10.9897 1.23414 11.9358 1.25225 12.8882C1.29251 14.8496 2.09948 16.7171 3.50022 18.0906C4.90408 19.4801 6.78888 20.2761 8.76381 20.3135C9.72346 20.3335 10.6775 20.1618 11.5699 19.8084C12.4623 19.455 13.2753 18.9271 13.9611 18.2556L18.7484 13.5596" stroke="#89939E" stroke-width="2.50052" stroke-linecap="round" stroke-linejoin="round"/>
</svg>
